<svg width="22" height="20" viewBox="0 0 22 20" fill="none" xmlns="http://www.w3.org/2000/svg">
<path d="M5.39941 0.805664C5.58696 0.752811 5.80066 0.85919 5.85449 1.07227L6.44336 3.27148L11.0771 2.05664L11.1553 2.04395C11.3363 2.03202 11.5071 2.13525 11.5547 2.32422L12.5371 5.95996L16.1289 5L16.207 4.9873C16.3879 4.97535 16.5586 5.07805 16.6064 5.2666L18.4473 12.1016L20.0918 11.6738L20.1699 11.6611C20.3509 11.6492 20.5217 11.7525 20.5693 11.9414L21.0098 13.5635L21.0352 13.6816C21.1318 14.2718 20.7795 14.8748 20.1855 14.9902L20.1865 14.9912L14.2451 16.5566C14.319 17.7233 13.5683 18.8112 12.3994 19.1152L12.4004 19.1162C11.2316 19.4434 10.0176 18.8695 9.50977 17.8281L8.53027 18.0967H8.5293C8.32201 18.1484 8.10639 18.0456 8.05176 17.8301L4.05566 3.11523L2.15625 3.58984C1.66711 3.71205 1.1309 3.41928 0.984375 2.90625C0.837146 2.39065 1.15651 1.87833 1.66699 1.73242L1.66895 1.73145L5.39941 0.804688V0.805664ZM13.4277 16.4131C13.2479 15.5141 12.2795 14.8605 11.2881 15.1309H11.2871C10.3419 15.3787 9.80204 16.346 10.0947 17.292C10.3645 18.1688 11.2862 18.6653 12.1875 18.418L12.3457 18.3643C13.1162 18.0644 13.6173 17.2778 13.4277 16.4141V16.4131ZM1.85547 2.45508C1.73855 2.49238 1.69983 2.60498 1.72656 2.70703C1.73995 2.75766 1.76888 2.80104 1.80859 2.82715C1.84723 2.85255 1.89975 2.86405 1.96777 2.84473H1.96973L4.24121 2.28809L4.25293 2.28516V2.28711H4.32227C4.46608 2.28711 4.6031 2.38907 4.66992 2.51855L4.69434 2.57617L4.69531 2.57812V2.5791L8.69141 17.2705L9.27148 17.1289C9.17706 16.4611 9.35571 15.7402 9.80762 15.1953L9.34082 15.3164H9.33984C9.1324 15.368 8.91659 15.2648 8.8623 15.0488L5.21387 1.60938L1.85547 2.45508ZM12.6299 14.4619C13.2774 14.701 13.8124 15.2181 14.0615 15.8564L19.9756 14.293C20.1741 14.2387 20.2941 14.0582 20.2793 13.8604L20.2646 13.7744L19.9297 12.5244C17.6525 13.1331 14.8599 13.8705 12.6299 14.4619ZM7.74414 8.02637L9.50195 14.4873L17.7246 12.3125L15.9668 5.84961L7.74414 8.02637ZM6.6543 4.0166L7.53223 7.28027L11.792 6.14844L10.915 2.88379L6.6543 4.0166Z" fill="#5D6679" stroke="#5D6679" stroke-width="0.1"/>
</svg>
