<svg width="18" height="22" viewBox="0 0 18 22" fill="none" xmlns="http://www.w3.org/2000/svg">
<path d="M9.56543 0.950195C9.77154 0.950364 9.93735 1.11976 9.9375 1.32715C9.9375 1.53466 9.77163 1.70491 9.56543 1.70508H2.09473C1.8754 1.70508 1.69531 1.88726 1.69531 2.11328V20.1865C1.69531 20.4127 1.87522 20.5957 2.09473 20.5957H9.61523V20.6006C9.7977 20.6255 9.93742 20.7823 9.9375 20.9727C9.9375 21.1802 9.77163 21.3504 9.56543 21.3506H2.09473C1.46272 21.3506 0.950195 20.8271 0.950195 20.1865V2.11328C0.950195 1.47274 1.46272 0.950195 2.09473 0.950195H9.56543ZM12.2324 6.3916C12.3782 6.24393 12.6152 6.24481 12.7607 6.39258L17.1855 10.8838L17.2002 10.8984V10.9014C17.2602 10.9703 17.2941 11.058 17.2939 11.1504C17.2939 11.2504 17.255 11.3464 17.1855 11.417L12.7598 15.9082C12.6872 15.982 12.5918 16.0195 12.4961 16.0195C12.4004 16.0194 12.305 15.9819 12.2324 15.9082C12.0876 15.7607 12.0874 15.5223 12.2324 15.375L16.0234 11.5273H5.6123C5.40612 11.5273 5.24038 11.3578 5.24023 11.1504C5.24023 10.9428 5.40603 10.7725 5.6123 10.7725H16.0234L12.2324 6.92578C12.0873 6.77845 12.087 6.539 12.2324 6.3916Z" fill="#5D6679" stroke="#5D6679" stroke-width="0.1"/>
</svg>
