<svg width="22" height="20" viewBox="0 0 22 20" fill="none" xmlns="http://www.w3.org/2000/svg">
<path d="M14.0859 0.517578C14.1072 0.517578 14.147 0.516665 14.1846 0.527344C14.2196 0.537309 14.2532 0.557656 14.2793 0.591797L20.9248 4.5293C21.0375 4.57538 21.0995 4.68897 21.0996 4.81445V19.1357C21.0995 19.2323 21.0672 19.3204 21.0029 19.3848C20.9384 19.4492 20.8497 19.4824 20.7529 19.4824H6.43262C6.38389 19.4824 6.33845 19.474 6.2959 19.4551C6.25381 19.4364 6.21905 19.4095 6.18848 19.3789L6.18652 19.377L1.00293 13.9463C0.972542 13.9158 0.945325 13.8817 0.926758 13.8398C0.907886 13.7973 0.900391 13.7518 0.900391 13.7031V0.864258C0.900391 0.767407 0.932582 0.678743 0.99707 0.614258C1.06158 0.549776 1.15031 0.517578 1.24707 0.517578H14.0859ZM6.7793 18.7881H20.4062V5.16113H15.4209V8.76465C15.4209 8.86136 15.3885 8.95019 15.3242 9.01465C15.2597 9.07911 15.1709 9.11228 15.0742 9.1123H11.8643C11.7674 9.1123 11.6787 9.07917 11.6143 9.01465C11.5499 8.95015 11.5176 8.86132 11.5176 8.76465V5.16113H6.7793V18.7881ZM1.59375 13.5635L6.08496 18.2676V4.98633L1.59375 1.55957V13.5635ZM12.2109 8.41797H14.7275V5.16113H12.2109V8.41797ZM15.4258 4.46777H19.4756L13.9844 1.21094H10.541L15.4258 4.46777ZM11.9688 4.46777H14.1768L9.29102 1.21094H7.08301L11.9688 4.46777ZM6.54102 4.46777H10.7197L5.83398 1.21094H2.2832L6.54102 4.46777Z" fill="#5D6679" stroke="#5D6679" stroke-width="0.2"/>
</svg>
